<?xml version="1.0" standalone="no"?>
<!DOCTYPE svg PUBLIC "-//W3C//DTD SVG 1.1//EN" "http://www.w3.org/Graphics/SVG/1.1/DTD/svg11.dtd" >
<svg xmlns="http://www.w3.org/2000/svg">
<metadata>
This is a custom SVG webfont generated by Font Squirrel.
</metadata>
<defs>
<font id="webfontIiZ2NHt1" horiz-adv-x="227" >
<font-face units-per-em="1000" ascent="737" descent="-263" />
<missing-glyph horiz-adv-x="250" />
<glyph unicode=" "  horiz-adv-x="250" />
<glyph unicode="&#x09;" horiz-adv-x="250" />
<glyph unicode="&#xa0;" horiz-adv-x="250" />
<glyph unicode="!" horiz-adv-x="325" d="M194 674q10 0 10 -26v-23q0 -137 -17 -259.5t-28 -154.5q-5 -16 -17 -16q-15 0 -15 30v17q-2 62 -4.5 123t-4.5 103l-5 76l-3 50l-2 17q0 15 13 23q68 40 73 40zM166 85q21 0 36 -15t15 -36q0 -20 -14.5 -35t-36.5 -15q-21 0 -36.5 14.5t-15.5 36.5t15.5 36t36.5 14z" />
<glyph unicode="&#x22;" horiz-adv-x="389" d="M150 715q17 0 27 -11t10 -27q0 -13 -14 -39q-93 -166 -97 -171q-8 -10 -18 -10q-9 0 -14.5 6.5t-5.5 15.5v1q0 5 59 179q21 56 53 56zM316 715q16 0 26 -11t10 -27q0 -15 -13 -39l-53 -94q-43 -75 -45 -77q-8 -10 -18 -10q-9 0 -14.5 6.5t-5.5 15.5v1q0 5 60 179 q19 56 53 56z" />
<glyph unicode="#" horiz-adv-x="552" d="M346 348q0 5 -7 5h-105q-7 0 -9 -7q-3 -20 -11 -78t-8 -61q0 -5 8 -5h102q10 0 11 8q19 137 19 138zM404 615h7q16 0 16 -11q0 -5 -13.5 -100.5t-13.5 -100.5t5 -5h74q19 0 19 -26q0 -19 -16 -19h-86q-3 0 -5 -6l-11 -79q-8 -58 -8 -60q0 -6 7 -6h101q18 0 18 -22 q0 -23 -18 -23h-104q-11 0 -13 -11q-25 -177 -26 -179q-5 -10 -22 -10q-20 0 -20 14q0 4 12 91t12 89q0 6 -8 6h-69q-30 0 -36.5 -1.5t-7.5 -6.5q-25 -181 -26 -183q-5 -9 -25 -9q-19 0 -19 14q0 3 12.5 90t12.5 89q0 7 -9 7h-74q-16 0 -16 19q0 10 0.5 14.5t4 8t11.5 3.5 h87q3 0 3 2q20 137 20 144q0 5 -7 5h-101q-18 0 -18 22q0 23 18 23h108q9 0 9 8q28 200 29 201q5 8 23 8h1q20 0 20 -13q0 -4 -14 -100t-14 -99q0 -5 8 -5h104q8 0 9 7q28 201 30 203q5 7 16 7h3z" />
<glyph unicode="$" horiz-adv-x="482" d="M376 531q0 -19 -11.5 -31.5t-29.5 -12.5q-21 0 -33.5 16t-17 35.5t-16.5 38t-33 22.5h-2q-5 0 -5 -5v-174q0 -3 -0.5 -9t-0.5 -7q0 -13 10.5 -18t37.5 -14q93 -40 118 -122q9 -30 9 -61q0 -79 -48.5 -126.5t-118.5 -59.5q-8 -2 -8 -12v-69q0 -19 -20 -19t-20 19v69 q0 10 -9 10q-69 2 -115.5 45t-46.5 87q0 23 14 39t35 16q18 0 30 -12.5t12 -33.5q0 -6 -1.5 -17t-1.5 -18q0 -34 26 -49.5t51 -15.5q5 0 5 4v260q0 12 -9 13q-65 14 -100.5 62.5t-35.5 102.5q0 61 39 104t97 48q9 2 9 8v21q0 20 20 20h1q21 0 21 -20v-19v-2q0 -6 6 -6 q62 -7 102 -40t40 -67zM183 599q-21 0 -52.5 -25.5t-31.5 -69.5q0 -45 34 -70t48 -25q5 0 5 5v75v83q0 27 -3 27zM234 295q-7 0 -7 -9q0 -72 -0.5 -139.5t-0.5 -71.5q0 -31 4 -31h2q22 0 61 35t39 92q0 56 -39 90t-59 34z" />
<glyph unicode="%" horiz-adv-x="820" d="M213 -123q-9 0 -17 5.5t-8 13.5q0 4 4 12q395 674 398 677q8 10 23 10q9 0 19.5 -4.5t10.5 -13.5q0 -5 -4 -11q-400 -674 -404 -678q-9 -11 -22 -11zM179 515q-23 0 -39 -14t-24 -36.5t-11.5 -43.5t-3.5 -42q0 -39 12 -86t36 -68q21 -17 44 -17q61 0 73 85q5 30 5 55 q0 65 -24.5 116t-67.5 51zM193 553q52 0 95 -42.5t43 -135.5q0 -91 -42 -148t-110 -57q-52 0 -95 42t-43 134q0 99 44 153t108 54zM627 252q-42 0 -60.5 -43t-18.5 -91l1 -2q0 -39 12 -85.5t36 -67.5q19 -17 44 -17q60 0 73 84q5 30 5 56q0 64 -24.5 115t-67.5 51zM641 290 q52 0 95 -42.5t43 -135.5q0 -90 -42 -147.5t-110 -57.5q-52 0 -95 42t-43 134q0 99 44 153t108 54z" />
<glyph unicode="&#x26;" horiz-adv-x="828" d="M100 422q0 3 -10.5 16.5t-21 37.5t-10.5 53q0 68 52.5 120t122.5 52q37 0 72 -14.5t35 -46.5q0 -19 -14 -32t-31 -13q-20 0 -42.5 25t-44.5 25q-36 0 -71 -33t-35 -83q0 -29 14 -56t25 -27q2 0 17.5 7t41 13.5t51.5 6.5q37 0 62 -15.5t25 -40.5t-26.5 -41t-65.5 -16h-1 q-24 0 -46.5 6t-35 12t-14.5 6q-6 0 -12 -10l-1 -2q-27 -48 -27 -104q0 -27 7.5 -54t25.5 -55.5t45.5 -50t72 -36.5t99.5 -18h18q57 0 100 17t65.5 44t33 55.5t10.5 56.5q0 51 -29 85.5t-75 34.5q-44 0 -76 -29.5t-32 -66.5q0 -25 16.5 -43.5t41.5 -18.5q11 0 23.5 5 t12.5 12q0 5 -14.5 9t-22.5 15q-7 10 -7 22q0 15 11 25.5t28 10.5q23 0 40.5 -16.5t17.5 -41.5q0 -30 -25 -53t-61 -23q-40 0 -68.5 29.5t-28.5 71.5q0 40 26 75t71 58q46 23 131.5 36.5t115.5 26.5q36 16 61 46.5t25 72.5q0 46 -29 76.5t-66 30.5q-30 0 -30 -9l8 -10 q8 -11 8 -25q0 -17 -11.5 -29t-29.5 -12q-19 0 -32 14.5t-13 34.5q0 32 26.5 53t61.5 21q56 0 102 -48t46 -119q0 -80 -62 -137t-147 -59q-15 0 -15 -8q0 -1 8.5 -15t17 -40.5t8.5 -56.5v-2q0 -101 -88 -177t-210 -76q-123 0 -207 79.5t-84 188.5q0 29 6.5 56.5t16.5 47 t19 33t18 22.5l8 10q2 4 2 7v1zM261 392q42 0 42 23q0 25 -43 25q-35 0 -59.5 -7.5t-24.5 -15.5q0 -3 3 -6q25 -19 82 -19z" />
<glyph unicode="'" horiz-adv-x="224" d="M150 715q17 0 27 -11t10 -27q0 -13 -14 -39q-93 -166 -97 -171q-8 -10 -18 -10q-9 0 -14.5 7t-5.5 16v1q0 4 59 178q21 56 53 56z" />
<glyph unicode="(" horiz-adv-x="363" d="M316 -174q0 -9 -6 -14.5t-15 -5.5q-12 0 -24 10q-103 81 -164.5 198.5t-61.5 247.5q0 122 58.5 239.5t163.5 202.5q19 14 30 14q21 0 21 -19q0 -13 -14 -24q-82 -74 -132.5 -179.5t-50.5 -232.5q0 -120 47 -226.5t132 -183.5q16 -16 16 -27z" />
<glyph unicode=")" horiz-adv-x="363" d="M48 701q0 9 6 15t15 6t24 -11q103 -81 164 -198.5t61 -247.5q0 -122 -58.5 -239.5t-163.5 -202.5q-19 -14 -30 -14q-9 0 -15 5.5t-6 14.5t15 24q82 74 132 179t50 232q0 121 -46.5 227t-131.5 184q-16 13 -16 26z" />
<glyph unicode="*" horiz-adv-x="335" d="M321 617q0 -14 -14.5 -25.5t-32 -17t-32 -11.5t-14.5 -11q0 -6 23 -11t45.5 -17t22.5 -37q0 -17 -11.5 -28t-26.5 -11q-21 0 -47 26.5t-29 26.5q-7 0 -7 -9q0 -14 4.5 -38.5t4.5 -30.5q0 -20 -15 -29.5t-27 -9.5t-24 10t-12 32q0 11 3.5 32.5t3.5 27.5q0 11 -6 11 q-5 0 -34 -22t-50 -22q-16 0 -24 13t-8 22q0 20 23 34t45.5 22.5t22.5 15.5q0 6 -13.5 11t-30.5 8.5t-30.5 15t-13.5 29.5q0 15 12 25t26 10q18 0 42.5 -26.5t35.5 -26.5q5 0 5 7q0 5 -4.5 27t-4.5 36q0 45 40 45q39 0 39 -46q0 -17 -6 -41t-6 -25q0 -2 2 -2q4 0 34 24.5 t50 24.5q15 0 27 -11.5t12 -27.5z" />
<glyph unicode="+" horiz-adv-x="701" d="M76 231q-23 0 -23 22v13q0 22 24 22h245v249q0 20 20 20h14q24 0 24 -26v-243h249q20 0 20 -19v-14q0 -24 -27 -24h-242v-247q0 -22 -22 -22h-14q-22 0 -22 23v246h-246z" />
<glyph unicode="," d="M100 100q36 0 62 -33.5t26 -81.5q0 -58 -38 -95t-63 -37q-19 0 -19 17q0 8 5 12.5t17 11.5t21 15q26 24 26 47q0 17 -11 26t-24.5 10.5t-30 8t-24.5 18.5q-8 11 -8 26q0 23 18.5 39t42.5 16z" />
<glyph unicode="-" d="M199 335q16 0 16 -39q0 -14 -18 -28l-85 -60l-50 -36q-12 -9 -19.5 -13.5t-12.5 -4.5q-18 0 -18 26v14q0 10 3.5 14.5t15.5 13.5l137 96q25 17 31 17z" />
<glyph unicode="." d="M113 101q24 0 42 -17.5t18 -41.5t-17 -41.5t-42 -17.5q-24 0 -42 17t-18 43q0 25 17.5 41.5t41.5 16.5z" />
<glyph unicode="/" horiz-adv-x="435" d="M36 -187q-30 0 -30 14q0 4 377 744q5 9 15 9q31 0 31 -18q0 -4 -171 -328l-62 -124l-48 -96l-36 -72l-26 -52l-18 -34q-7 -15 -10 -22t-5.5 -11t-2.5 -4.5t-1 -1.5q-5 -4 -13 -4z" />
<glyph unicode="0" horiz-adv-x="475" d="M235 440q91 0 156 -67t65 -162q0 -94 -65 -161.5t-157 -67.5q-91 0 -156.5 66.5t-65.5 162.5q0 95 65.5 162t157.5 67zM234 385q-64 0 -110 -50t-46 -120q0 -71 46.5 -122t112.5 -51q63 0 110 47.5t47 121.5t-48 124t-112 50z" />
<glyph unicode="1" horiz-adv-x="356" d="M164 421q32 0 59.5 0.5t43.5 1.5t19 1q14 0 14 -22q0 -10 -5.5 -13.5t-22.5 -4.5t-47 -3q-14 -1 -14 -16v-304q0 -20 18 -21q54 -2 71.5 -5.5t17.5 -22.5q0 -18 -17 -18l-17 2q-18 1 -48 2.5t-59 1.5t-58 -2l-47 -2l-17 -2q-14 0 -14 21q0 17 18 19q34 2 51 3.5t21 5 t4 15.5v307q0 14 -15 16q-15 1 -34 1.5t-26 1t-16 1.5t-11.5 3.5t-4.5 7t-2 12.5q0 16 15 16q3 0 19 -1t43.5 -1.5t60.5 -0.5z" />
<glyph unicode="2" horiz-adv-x="450" d="M76 -13q-27 0 -27 19q0 8 5.5 12.5t27.5 18.5t46 32q72 56 124 123q24 32 24 58q0 46 -42.5 79t-89.5 33q-37 0 -59 -21.5t-24 -49.5q0 -26 -15 -26h-1q-20 0 -20 36q0 54 39 88.5t99 34.5q70 0 122.5 -41.5t52.5 -104.5q0 -29 -14.5 -57.5t-28.5 -45t-50.5 -52 t-50.5 -50.5q-4 -6 -4 -7q0 -8 11 -8q23 0 73 4q38 3 65.5 19t49.5 64q4 10 12 10q18 0 18 -12q0 -3 -37 -128q-2 -8 -6 -11t-9.5 -3t-13.5 -1q-48 -2 -160.5 -7.5t-116.5 -5.5z" />
<glyph unicode="3" horiz-adv-x="360" d="M119 443q17 0 41 -7t50 -20t44 -37t18 -53q0 -27 -14.5 -62t-29 -59t-14.5 -25q0 -5 7.5 -7.5t25.5 -8t35 -15.5q57 -33 57 -114q0 -97 -43 -152q-25 -32 -67 -48.5t-86 -16.5q-54 0 -84.5 25t-30.5 48q0 17 13.5 28.5t30.5 11.5t29.5 -11t20 -24t26.5 -24t46 -11 q47 0 69 38t22 91t-27 83.5t-95 30.5q-14 0 -26 -1t-14 -1q-17 0 -17 13q0 5 2 7t12 10t21 19q64 62 64 122q0 35 -21.5 66t-70.5 31q-32 0 -42 -10.5t-10 -27.5q0 -5 1 -13v-8q0 -13 -18 -13t-18 41q0 43 25 73.5t68 30.5z" />
<glyph unicode="4" horiz-adv-x="447" d="M40 0q-17 0 -17 14q0 8 17 32q252 362 261 374q7 9 16 9q14 0 14 -18l-1 -326q0 -11 10 -11h16q18 0 29.5 1t12.5 1q20 0 20 -13q0 -4 -4 -30t-7 -29q-4 -4 -12 -4h-56q-9 0 -9 -7v-167q0 -12 -10 -12h-40q-10 0 -10 12v164q0 10 -8 10h-222zM260 66q10 0 10 13v213 q0 8 -5 8q-2 0 -6 -4q-150 -222 -150 -225q0 -5 6 -5h145z" />
<glyph unicode="5" horiz-adv-x="381" d="M117 257q72 0 125.5 -54t53.5 -142q0 -79 -47 -149q-27 -39 -70.5 -72.5t-64.5 -33.5q-17 0 -17 15q0 7 9.5 14.5t23 14.5t33.5 25.5t36 43.5q36 57 36 119q0 69 -40 111t-93 42q-17 0 -34 -5l-17 -5q-13 0 -13 15q0 4 32 115l31 111q5 13 17 13q6 0 82.5 -24t84.5 -24 t16.5 9t16 20.5t9.5 13.5q4 3 8 3q5 0 10.5 -4t5.5 -10q0 -3 -46 -109q-4 -11 -13 -11q-7 0 -84 24t-79 24h-1q-7 0 -12 -13.5t-18 -65.5v-2q-1 -2 -1 -3q0 -6 7 -6h13z" />
<glyph unicode="6" horiz-adv-x="483" d="M368 142q0 48 -17 97t-57 87.5t-94 38.5q-38 0 -62.5 -24t-32.5 -55t-8 -69q0 -88 46 -146.5t110 -58.5q49 0 82 35.5t33 94.5zM204 401q99 0 170 -66.5t71 -165.5q0 -82 -53.5 -139.5t-136.5 -57.5q-88 0 -155 69t-67 186q0 143 100.5 258.5t250.5 143.5q2 1 7 1 q9 0 14.5 -7.5t5.5 -15.5q0 -11 -16 -18q-158 -51 -246 -187l-1 -1v-2q0 -3 4 -3l7 1q7 1 20 2.5t25 1.5z" />
<glyph unicode="7" horiz-adv-x="450" d="M52 217q-17 0 -17 16q0 1 4.5 31t9 82t5.5 105q0 19 18 19q11 0 14 -10t7 -36q2 -12 14 -12h302q22 0 22 -18v-1q0 -5 -58 -178l-67 -210q-29 -94 -39 -131t-18 -62t-10.5 -27t-10.5 -3q-6 -1 -19 -1h-1h-6q-28 0 -28 14q0 5 111 330q65 179 65 183q0 19 -30 24 q-55 5 -99 5q-83 0 -109 -7q-10 -2 -14 -7.5t-11 -26.5t-19 -64q-5 -15 -16 -15z" />
<glyph unicode="8" horiz-adv-x="447" d="M102 514q0 -45 27 -81.5t54.5 -51.5t42.5 -15q7 0 14 7q60 55 60 130q0 48 -29 83t-73 35h-1q-40 -1 -67.5 -32t-27.5 -75zM220 25q50 0 86 32t36 79q0 48 -40 91t-104 75q-10 6 -15 6q-17 0 -55 -50t-38 -107q0 -55 38.5 -90.5t91.5 -35.5zM209 -22q-80 0 -136.5 52 t-56.5 123q0 69 69 124l52 40q8 6 8 9t-5 6q-47 32 -77 76.5t-30 93.5q0 63 50.5 114.5t125.5 51.5q69 0 117 -37t48 -105q0 -50 -29.5 -96.5t-76.5 -72.5q-3 -1 -3 -5q0 -1 3 -4q71 -32 114 -82t43 -105q0 -73 -65.5 -128t-150.5 -55z" />
<glyph unicode="9" horiz-adv-x="509" d="M105 250q0 -81 48.5 -148.5t130.5 -67.5q45 0 67 18.5t33 52.5q11 36 11 71q0 85 -52.5 146t-121.5 61q-45 0 -80.5 -33.5t-35.5 -99.5zM275 -5q-100 0 -171.5 69.5t-71.5 162.5q0 85 61 143t145 58q96 0 165 -73.5t69 -179.5q0 -117 -88 -226t-229 -153q-26 -7 -31 -7 q-10 0 -14.5 8.5t-4.5 15.5q0 12 17 17q54 17 102.5 47t76 58t43 47.5t15.5 22.5t-3 3l-12 -3q-11 -3 -30.5 -6.5t-38.5 -3.5z" />
<glyph unicode=":" horiz-adv-x="228" d="M124 411q24 0 42 -17.5t18 -41.5t-17.5 -41.5t-42.5 -17.5q-24 0 -41.5 17t-17.5 43q0 25 17.5 41.5t41.5 16.5zM124 101q24 0 42 -17.5t18 -41.5t-17.5 -41.5t-42.5 -17.5q-24 0 -41.5 17t-17.5 43q0 25 17.5 41.5t41.5 16.5z" />
<glyph unicode=";" d="M124 100q36 0 62 -33.5t26 -81.5q0 -58 -38.5 -95t-63.5 -37q-18 0 -18 17q0 8 5 12.5t17 11.5t21 15q26 25 26 47v1q0 17 -11 25.5t-25 10.5t-30 8t-24 18q-8 9 -8 26q0 23 18.5 39t42.5 16zM124 411q24 0 42 -17.5t18 -41.5t-17.5 -41.5t-42.5 -17.5q-24 0 -41.5 17 t-17.5 43q0 25 17.5 41.5t41.5 16.5z" />
<glyph unicode="&#x3c;" horiz-adv-x="672" d="M52 249q0 11 18 18q524 191 528 191q23 0 23 -38q0 -14 -19 -20l-441 -161l447 -162q13 -5 13 -17t-7 -24.5t-22 -12.5q-5 0 -523 189q-17 6 -17 18v19z" />
<glyph unicode="=" horiz-adv-x="701" d="M76 305q-23 0 -23 22v14q0 22 23 22h552q20 0 20 -20v-13q0 -25 -26 -25h-546zM76 156q-22 0 -22 22v14q0 22 23 22h552q20 0 20 -20v-14q0 -24 -26 -24h-547z" />
<glyph unicode="&#x3e;" horiz-adv-x="672" d="M621 249v-19q0 -12 -17 -18q-519 -189 -523 -189q-15 0 -22 12.5t-7 24.5t13 17l447 162l-441 161q-19 6 -19 20q0 38 23 38q4 0 528 -191q18 -7 18 -18z" />
<glyph unicode="?" horiz-adv-x="380" d="M159 101q24 0 42 -17.5t18 -41.5t-17.5 -41.5t-42.5 -17.5q-24 0 -42 17t-18 43q0 25 18 41.5t42 16.5zM160 689q87 0 132 -46.5t45 -100.5q0 -34 -17 -64t-42 -53l-48 -47q-25 -24 -42 -56.5t-17 -71.5q0 -5 0.5 -12t0.5 -10q0 -18 -8.5 -27t-17.5 -9q-27 0 -27 55 q0 44 21 86t45.5 70t45.5 67t21 77q0 43 -25 73.5t-62 30.5q-21 0 -36.5 -11.5t-22.5 -25.5t-19.5 -25.5t-29.5 -11.5q-18 0 -30 13t-12 31q0 45 64 59q39 9 81 9z" />
<glyph unicode="@" horiz-adv-x="1000" d="M725 -71q12 0 12 -12q0 -16 -40.5 -38.5t-79.5 -34.5q-63 -20 -135 -20h-1q-169 1 -281 98.5t-112 263.5v1q0 43 9.5 86t32.5 96t73.5 102.5t121.5 85.5q108 54 217 54q144 0 234 -91t90 -224q0 -124 -72 -214t-162 -90q-33 0 -55 11.5t-29 25.5t-11.5 25.5t-5.5 11.5 t-5 -4q-61 -76 -131 -76q-39 0 -66 27t-27 70q0 65 69 157.5t133 131.5q39 24 75 24q11 0 19.5 -1.5t9.5 -1.5q8 0 16 15.5t9 16.5q5 4 13 4q23 0 23 -17l-25 -89q-25 -89 -44 -198q-5 -23 -5 -39q0 -26 14.5 -37t33.5 -11q32 0 69.5 20.5t60.5 53.5q51 71 51 188v1 q0 128 -80.5 199.5t-200.5 71.5q-151 0 -262 -104.5t-111 -269.5q0 -147 91.5 -241.5t238.5 -94.5q67 0 123 18t83 40q15 9 19 9zM587 353q0 10 -11 10q-33 0 -93 -58t-93 -143q-14 -33 -14 -60t13 -38.5t29 -11.5q18 0 47.5 14.5t50.5 38.5q20 22 22 34q49 212 49 214z" />
<glyph unicode="A" horiz-adv-x="821" d="M137 0q-26 0 -52 -1.5t-41 -2.5l-15 -2q-20 0 -20 21q0 10 3 15.5t8.5 8t14 4t19.5 2.5q24 3 35 12.5t22 35.5q74 165 153 320l130 245q17 33 25 40q11 8 24 8q27 0 42 -38l144 -332q109 -265 111 -268q13 -20 42.5 -24t32.5 -15q2 -8 2 -13q0 -22 -20 -22l-17 2 q-16 1 -43.5 2.5t-54.5 1.5q-32 0 -58.5 -1.5t-42 -3t-18.5 -1.5q-20 0 -20 17q0 12 2.5 17.5t9 8.5t18 4.5t29.5 3.5q20 4 20 19t-24 89.5t-51 136.5q-4 10 -18 10h-235q-16 0 -23 -12q-34 -63 -60.5 -131t-26.5 -85q0 -10 4 -16t12 -8.5t20 -3.5l27 -4q22 -2 22 -24 t-22 -22q-3 0 -17 1.5t-39 3t-54 1.5zM509 352q9 0 9 7q0 8 -38.5 98t-49.5 108q-4 7 -11 7q-9 0 -19 -17q-102 -191 -102 -199q0 -4 6 -4h205z" />
<glyph unicode="B" horiz-adv-x="564" d="M90 686q31 0 87.5 4.5t86.5 4.5q108 0 166 -40q61 -44 61 -115q0 -46 -26.5 -87t-68.5 -67q-2 -2 -2 -3t3 -3q59 -12 99 -60.5t40 -113.5q0 -66 -38 -116.5t-89 -72.5q-51 -23 -120 -23q-23 0 -68.5 3t-68.5 3q-16 0 -53 -1t-61 -1h-2q-6 0 -9.5 1t-6.5 6.5t-3 16.5 q0 13 8.5 16t47.5 7h1q7 1 10.5 2.5t6.5 5.5t3 12v547q0 13 -7 20t-15.5 8.5t-29.5 3.5q-18 0 -18 25q0 18 18 18q1 0 7 -0.5t17 -0.5h24zM402 519q0 20 -7 41t-22.5 42.5t-46 35t-71.5 13.5q-56 0 -70 -11q-5 -4 -5 -13v-2v-214q0 -13 10 -13h45h13q106 0 140 64 q14 28 14 57zM257 41q79 0 134.5 42.5t55.5 117.5q0 50 -29 92.5t-89 55.5q-27 6 -84 6h-51q-14 0 -14 -15v-258q0 -11 1 -16.5t8 -12t21 -8.5q30 -4 47 -4z" />
<glyph unicode="C" horiz-adv-x="700" d="M115 354q0 -138 82 -232.5t199 -94.5q88 0 161 54t100 143q4 13 15 13q16 0 16 -11l-25 -163q-4 -16 -22 -16h-1h-28q-15 0 -24.5 -5.5t-22.5 -15.5q-86 -50 -185 -50q-70 0 -136.5 27t-116.5 76q-51 49 -79.5 117t-28.5 139q0 74 30.5 142t80.5 117q107 102 255 102h1 q53 0 98.5 -13t70.5 -26.5t27 -13.5q8 0 13.5 16.5t15.5 19.5q2 0 6 0.5t5 0.5q11 0 13 -12l7 -51q6 -51 13 -104t7 -57q0 -17 -20 -17q-10 0 -15 1.5t-7.5 7t-3.5 14.5t-3 24q-6 40 -26 66q-34 43 -86.5 70.5t-117.5 27.5q-108 0 -188 -81.5t-80 -214.5z" />
<glyph unicode="D" horiz-adv-x="709" d="M300 48q119 0 207 71.5t88 196.5q0 74 -31 143t-89 112q-85 62 -208 62q-43 0 -55 -6t-12 -25v-509q0 -18 8 -26.5t28 -12.5q32 -6 64 -6zM11 654q0 21 22 21h182q93 0 161.5 -8t128.5 -36q81 -38 135.5 -113t54.5 -175q0 -127 -88 -221.5t-202 -115.5q-35 -6 -89 -6 h-283q-23 0 -23 28q0 12 7.5 16.5t24 5.5t42.5 2q16 1 21.5 9.5t5.5 26.5v506q0 14 -4.5 21.5t-14.5 10.5t-25.5 3.5t-37.5 1.5q-18 0 -18 23z" />
<glyph unicode="E" horiz-adv-x="578" d="M436 513q28 0 28 -29v-184q0 -29 -28 -29q-27 0 -27 22v54q0 22 -26 22h-138q-15 0 -23.5 -2t-17 -11t-8.5 -27v-229q0 -34 32 -38q43 -7 93 -7q34 0 82.5 5.5t61.5 15.5q9 7 35 54.5t34 52.5q6 3 10 3q6 0 12 -6t6 -17v-1q0 -4 -31 -142q-2 -11 -8.5 -15.5t-21.5 -4.5 h-344q-45 0 -83.5 -6t-40.5 -6q-12 0 -18 11t-6 19q0 9 5 13.5t22 10.5l49 19q14 5 18 13t4 26v521q0 11 -4.5 14t-22.5 6q-29 1 -47.5 5.5t-18.5 22.5q0 22 19 22h460q17 0 22 -16l17 -77q12 -54 12 -56q0 -15 -21 -15q-15 0 -28 18q-23 43 -35.5 63.5t-19.5 25t-23 4.5 h-188q-14 0 -21 -6t-8.5 -13t-1.5 -19v-151q0 -22 20 -22h153q11 0 18 1.5t13.5 9t6.5 22.5v31q0 22 27 22z" />
<glyph unicode="F" horiz-adv-x="541" d="M450 483q0 -3 -1 -15t-2 -32.5t-1 -45.5t1 -46.5t2 -33.5t1 -14q0 -26 -27 -26q-12 0 -16.5 7t-6.5 23.5t-5 45.5q-1 14 -18 14h-163q-22 0 -22 -28v-248q0 -9 1 -13.5t4 -10.5t12 -9t24 -4q32 -1 51.5 -1t28 -4.5t8.5 -17.5v-9q0 -21 -17 -21l-20 2q-19 1 -51 2.5 t-64 1.5t-64.5 -1.5t-51.5 -2.5l-19 -2q-23 0 -23 23q0 14 5 19.5t18 6t34 2.5q30 3 30 31v530q0 12 -3 18t-10.5 8.5t-20 3t-31.5 1.5q-23 0 -23 21q0 30 18 30q3 0 13.5 -1t29.5 -2t41 -1q17 0 75 1.5t87 1.5h190h5q27 0 33 -25q23 -104 23 -107q0 -10 -6 -16.5t-14 -6.5 q-10 0 -17 7t-18 25l-28 51q-8 13 -14.5 17t-20.5 4h-184q-18 0 -23.5 -9t-5.5 -27v-167q0 -15 15 -15h167q10 0 14 4t6.5 17.5t6.5 37.5q4 27 24 27q23 0 23 -21z" />
<glyph unicode="G" horiz-adv-x="691" d="M366 -24q-142 0 -246 111t-104 267q0 150 98 251t238 101q41 0 80 -10t62 -21.5t41 -22t20 -11.5h4q11 0 26 19t18 20q5 3 12 3q14 0 14 -14v-27q0 -35 1.5 -71t4 -58.5t3.5 -38.5l2 -17q0 -16 -29 -16q-11 0 -15 6.5t-5 17.5t-9.5 32.5t-24.5 44.5q-38 52 -96 84 t-121 32q-40 0 -78 -15.5t-71.5 -48t-54 -91t-20.5 -136.5q0 -76 17.5 -136.5t44.5 -97t62.5 -61t69 -34t67.5 -9.5q57 0 106.5 23.5t58.5 41.5q3 6 3 17v113q0 16 -8 22.5t-29 8.5t-57 5q-28 2 -28 23q0 23 22 23q3 0 16.5 -1t36.5 -2t50 -1h2q28 0 52.5 1t38 2t16.5 1 q13 0 19.5 -6.5t6.5 -14.5q0 -17 -25 -26t-28 -20q-1 -3 -1 -10v-169q0 -20 -14 -20q-6 0 -16 10.5t-14 10.5q-6 0 -14 -8q-88 -77 -205 -77z" />
<glyph unicode="H" horiz-adv-x="762" d="M158 0q-30 0 -59.5 -1.5t-46.5 -2.5l-17 -2q-20 0 -20 27q0 11 5.5 15t20.5 5t42 3q16 1 21 9t5 23v529q0 15 -6.5 22t-18.5 9l-26 3q-14 0 -29 3.5t-15 17.5q0 5 1.5 10.5t7 11t14.5 5.5q3 0 18.5 -0.5t41.5 -1t57 -0.5h3q32 0 59 0.5t42.5 1t18.5 0.5q7 0 11 -3t5.5 -7 t2.5 -11q0 -2 0.5 -5t0.5 -4q0 -10 -6 -13.5t-23 -4.5t-47 -3q-23 -1 -23 -30v-165q0 -14 13 -14h338q17 0 17 18v148q0 36 -21 43q-8 3 -22 4t-24 1.5t-17.5 5.5t-7.5 16q0 24 24 24q3 0 16 -0.5t36.5 -1t50.5 -0.5q31 0 62.5 1t50.5 2l18 1q19 0 19 -20q0 -14 -7.5 -20 t-23.5 -8l-38 -5q-27 -3 -27 -29v-525v-5q0 -30 28 -32q19 -2 33 -2t21.5 -5.5t7.5 -17.5q0 -26 -20 -26l-17 2l-47 2q-29 2 -58 2t-58 -1.5t-46 -2.5l-17 -2q-16 0 -16 20q0 15 5 20.5t20.5 7t45.5 3.5q19 1 24.5 10t5.5 28v271q0 11 -13 11h-341q-15 0 -15 -17v-271 q0 -9 1.5 -14t13 -11t33.5 -8q11 1 30 -3t19 -19q0 -28 -16 -28l-17 2q-17 1 -46 2.5t-58 1.5z" />
<glyph unicode="I" horiz-adv-x="323" d="M52 680l16 -1l44 -3q28 -1 55 -1q28 0 51.5 1t36.5 2t16 1q17 0 17 -19q0 -11 -2.5 -17t-9.5 -8.5t-19.5 -3.5t-31.5 -3q-16 -1 -16 -17v-540q0 -23 18 -25q42 -1 60.5 -4t18.5 -19q0 -29 -20 -29l-18 2q-18 1 -48.5 2.5t-60.5 1.5t-61 -1.5t-49 -2.5l-18 -2 q-15 0 -17 23q-1 3 -1 9q0 10 6 14t25 5t53 3q21 1 21 28v520q0 3 0.5 8t0.5 6q0 10 -5.5 14t-20 5t-40.5 2q-23 2 -23 21q0 28 22 28z" />
<glyph unicode="J" horiz-adv-x="316" d="M165 675q31 0 57 1t41.5 2t18.5 1q17 0 17 -20q0 -15 -6 -21t-20.5 -7.5t-37.5 -3.5q-26 -2 -26 -34v-537q0 -58 -24 -111t-64 -91q-9 -9 -25.5 -22t-46 -28.5t-51.5 -15.5q-34 0 -57 24.5t-23 52.5q0 20 12.5 34.5t32.5 14.5q25 0 50 -33t46 -33q34 0 50 61q9 32 9 65 v621q0 17 -8.5 24t-26.5 8.5t-46 4.5q-22 2 -22 21q0 27 22 27l17 -1q18 -1 48 -2.5t59 -1.5h4z" />
<glyph unicode="K" horiz-adv-x="654" d="M280 -6l-18 2q-17 1 -47 2.5t-60 1.5q-29 0 -59 -1.5t-48 -2.5l-17 -2q-17 0 -17 23q0 16 12.5 22t28 5t31.5 3.5t22 17.5q3 7 3 28v497q0 14 -2.5 23t-7.5 14t-13 7t-20 3.5t-28 2.5q-28 2 -28 24q0 9 7 16.5t22 7.5q3 0 17 -1t39 -2t54 -1h1q29 0 54 1t39 2t17 1 q15 0 22 -8.5t7 -17.5q0 -18 -36.5 -20.5t-40.5 -4.5q-15 -7 -15 -33v-4v-213q0 -17 13 -17q7 0 26 21q178 198 182 205q8 10 8 21q0 14 -10.5 20.5t-22.5 6.5t-22.5 5t-10.5 17q0 21 23 21q3 0 16.5 -0.5t37 -1t51.5 -0.5h6q26 0 49 0.5t35.5 1t15.5 0.5q28 0 28 -21 q0 -12 -13.5 -17.5t-38 -9.5t-37.5 -9q-20 -8 -39.5 -27.5t-32.5 -35.5l-157 -169q-22 -24 -22 -30q0 -7 8 -15l240 -253q32 -35 42 -41q17 -11 38.5 -14.5t29.5 -11.5q6 -8 6 -15q0 -8 -7.5 -15.5t-21.5 -7.5q-5 0 -18 2t-29 2q-35 -1 -53 0.5t-25 5.5t-20 19l-220 253 q-33 38 -41 38h-1q-14 0 -14 -20v-211q0 -15 3.5 -22t12.5 -10.5t24.5 -4.5t39.5 -3q22 -3 22 -22q0 -28 -20 -28z" />
<glyph unicode="L" horiz-adv-x="563" d="M151 675q32 0 59 0.5t43 1.5t19 1q11 0 14 -6.5t3 -20.5q0 -23 -22 -23q-33 0 -51.5 -0.5t-24.5 -6t-6 -22.5v-507q0 -10 1.5 -16t7.5 -11t17 -5h191h3q37 0 55 27q5 8 22 45t20 40q6 8 15 8q5 0 11 -1.5t12.5 -7t6.5 -14.5q0 -7 -20 -141q-1 -7 -2.5 -11t-7.5 -7.5 t-17 -3.5l-59 2q-59 1 -159 2.5t-199 1.5h-53q-16 0 -16 16q0 8 2.5 12t9 6.5t17 5t26.5 5.5q23 6 23 32v3v525q0 14 -5 18.5t-17.5 5t-33.5 0.5q-25 2 -25 24q0 25 19 25q2 0 37.5 -1t76.5 -2h7z" />
<glyph unicode="M" horiz-adv-x="998" d="M721 -6q-19 0 -19 24q0 15 15 20.5t33.5 5t36 7.5t21.5 28q1 6 1 19v213q0 151 -3 160q-1 6 -7 6q-7 0 -14 -12q-50 -80 -152 -270t-109 -198q-10 -12 -22 -12q-7 0 -12.5 3.5t-9.5 9t-7.5 12t-5.5 11.5q-70 145 -160 297.5t-100 158.5q-1 1 -3 1q-4 0 -4 -5 q-6 -105 -6 -208q0 -183 6 -203q3 -11 18.5 -14.5t32 -2.5t30 -5.5t13.5 -22.5q0 -23 -18 -23l-17 2q-17 1 -46 2.5t-57 1.5t-57 -1.5t-46 -2.5l-17 -2q-18 0 -18 22q0 14 8 20.5t24.5 8t41.5 4.5q15 2 22 9.5t7.5 18.5t2.5 25q25 297 25 447q0 12 -11 25q-1 1 -12.5 15.5 t-19.5 21.5t-26 15.5t-38 8.5q-20 3 -20 18q0 22 18 22h144q17 0 25 -13l189 -316l117 -186q6 -12 17 -12q9 0 14 11l271 507q5 9 18 9h145q15 0 15 -22q0 -10 -5.5 -15t-12.5 -7t-25.5 -6t-34.5 -9q-24 -6 -24 -29q5 -485 5 -486v-7q0 -16 1.5 -24t9.5 -15.5t24 -9.5 q22 -2 36 -3t21 -6.5t7 -19.5q0 -22 -20 -22l-19 2q-18 1 -48.5 2.5t-61.5 1.5q-30 0 -60.5 -1.5t-48.5 -2.5z" />
<glyph unicode="N" horiz-adv-x="799" d="M791 658q0 -17 -14 -21.5t-31.5 -2.5t-31.5 -11.5t-14 -46.5q-4 -180 -4 -271q0 -74 1 -137.5t2 -99.5t1 -44q0 -47 -20 -47q-12 0 -49 42l-207 236q-219 244 -222 244l-4 -4q-13 -190 -13 -355v-29q0 -40 7 -51.5t38 -13.5q36 0 61 -7q13 -7 13 -26t-17 -19l-17 2l-47 2 q-29 2 -58 2t-58.5 -1.5t-46.5 -2.5l-18 -2q-21 0 -21 20q0 21 15 26q6 2 26.5 3.5t36 7.5t22.5 21q3 6 4.5 24.5t6.5 121.5l17 324v3v1q0 14 -33 44q-39 39 -89 43q-18 0 -18 22q0 26 22 26h123q24 0 40 -19l157 -182l91 -102l130 -140q42 -46 52 -56t14 -10q7 0 7 10 q2 72 2 107q0 151 -9 298q-1 30 -14 37.5t-51 11.5q-22 3 -22 21q0 9 7 16.5t22 7.5q2 0 14.5 -0.5t34 -1.5t47.5 -1q25 0 46.5 1t33.5 1.5t14 0.5q21 0 21 -23z" />
<glyph unicode="O" horiz-adv-x="778" d="M760 337q0 -155 -105 -258t-254 -103q-73 0 -143.5 28.5t-123.5 79.5q-114 110 -116 269q0 152 109 259.5t260 107.5q158 0 265.5 -113.5t107.5 -269.5zM113 384q0 -90 30.5 -167.5t97 -130t156.5 -52.5q36 0 71.5 9t70.5 31t62 54t43.5 81t16.5 110q0 80 -26.5 155.5 t-83.5 125.5q-76 67 -180 67t-181 -72.5t-77 -210.5z" />
<glyph unicode="P" horiz-adv-x="572" d="M476 498q0 65 -60 107.5t-163 42.5q-40 0 -50.5 -3t-10.5 -12v-285q0 -8 6 -10t31 -2q110 0 178.5 44.5t68.5 117.5zM69 683q50 0 127.5 5t110.5 5q128 0 195 -60q58 -53 58 -130v-1q-1 -53 -29.5 -95t-72.5 -65q-74 -41 -225 -41h-30q-13 0 -13 -16v-203 q0 -17 6.5 -25.5t25.5 -9.5q46 -1 70 -2.5t31 -6t7 -19.5v-1q0 -24 -19 -24l-20 2q-20 1 -53 2.5t-65 1.5q-33 0 -66.5 -1.5t-52.5 -2.5l-20 -2q-20 0 -20 24q0 14 4.5 19t18.5 6.5t39 3.5q17 2 22.5 8t5.5 19v535q0 26 -22 26h-36q-7 0 -11 1t-8.5 7t-4.5 18q0 22 22 22h25 z" />
<glyph unicode="Q" horiz-adv-x="752" d="M407 32q104 0 176 81.5t72 215.5q0 80 -26.5 158t-85.5 128q-71 60 -167 60q-104 0 -181.5 -75.5t-77.5 -207.5q0 -89 34.5 -170.5t102.5 -135.5t153 -54zM456 -11l-23 -3q-23 -2 -44 -2q-75 0 -144 29.5t-119 80.5q-106 108 -106 260q0 74 29.5 144t82.5 122 q106 104 256 104q65 0 130.5 -25t115.5 -75q53 -52 81.5 -122.5t28.5 -145.5q0 -101 -50.5 -193.5t-131.5 -147.5q-3 -3 -3 -5t3 -4q39 -27 82.5 -72.5t66.5 -60.5q40 -27 85 -27q8 0 14 0.5t7 0.5q12 0 12 -10q0 -12 -29.5 -26t-59.5 -14q-28 0 -55 10t-46 26l-39 35 q-20 18 -35 34q-87 87 -109 87z" />
<glyph unicode="R" horiz-adv-x="696" d="M438 496q0 61 -50.5 106.5t-124.5 45.5q-47 0 -60 -10q-6 -4 -6 -16l1 -1v-2v-235q0 -13 10 -15.5t56 -2.5q56 0 92 14q35 14 58.5 44t23.5 72zM283 687q64 0 112 -17t73 -44.5t36.5 -55.5t11.5 -57q0 -65 -40 -109t-74 -57q-5 -3 -5 -5t2 -4q72 -85 124.5 -166.5 t60.5 -90.5q28 -32 54 -32q15 0 26.5 11t16.5 11q10 0 10 -11q0 -18 -24.5 -45.5t-62.5 -27.5q-51 0 -106 73l-100 142q-86 120 -92 124q-5 4 -17 4h-73q-14 0 -14 -15v-231v-3q0 -29 26 -32q33 -3 53.5 -4.5t29 -7.5t8.5 -21q0 -22 -20 -22l-19 2q-18 1 -48.5 2.5 t-61.5 1.5t-61.5 -1.5t-48.5 -2.5l-18 -2q-18 0 -18 27q0 11 6 15.5t19.5 5.5t36.5 3q17 2 22 10t5 25v517q0 12 -3.5 18.5t-12.5 10.5t-25.5 6.5t-42.5 7.5q-15 3 -15 16q0 19 13 19h35q47 0 119 6t102 6z" />
<glyph unicode="S" horiz-adv-x="492" d="M32 516q0 69 51 119t128 50q36 0 65 -10t44.5 -20t19.5 -10q6 0 17.5 20t24.5 20q16 0 16 -19q0 -2 -1 -12.5t-2 -29.5t-1 -41t1 -40t2 -28.5t1 -12.5q0 -15 -17 -15h-1q-14 0 -20.5 10.5t-18 35t-30.5 46.5q-50 56 -110 56q-42 0 -69.5 -27.5t-27.5 -66.5q0 -55 51 -91 q31 -22 99.5 -39t90.5 -26q57 -24 91.5 -72.5t34.5 -114.5q0 -90 -63.5 -152.5t-155.5 -62.5q-89 0 -152 55q-16 14 -31 14q-5 0 -13.5 -1.5t-12.5 -1.5q-18 0 -18 15q0 3 3.5 20t9.5 55t10 88q2 21 22 21q15 0 19 -9.5t9 -48.5q3 -50 4 -53.5t22 -31.5q49 -66 129 -66 q60 0 102.5 40.5t42.5 98.5q0 68 -58 110q-34 24 -101.5 41t-87.5 25q-59 23 -89 66.5t-30 95.5z" />
<glyph unicode="T" horiz-adv-x="692" d="M494 -6l-20 2q-19 1 -51.5 2.5t-64.5 1.5t-64.5 -1.5t-51.5 -2.5l-20 -2q-20 0 -20 26q0 12 5 16.5t21.5 6.5t46.5 4q21 2 27.5 11t6.5 26v507q0 31 -27 31h-149q-19 0 -25.5 -4t-12.5 -16q-29 -61 -38.5 -77t-22.5 -16q-10 0 -16 7t-6 18v1q0 4 29 138q3 15 21 15h583 q11 0 14.5 -5.5t5.5 -17.5q24 -122 24 -128q0 -9 -5.5 -15.5t-13.5 -6.5q-12 0 -23 19q-22 40 -34 59.5t-19 24t-23 4.5h-147q-22 0 -22 -27v-524q0 -13 6.5 -17.5t26.5 -6.5t58 -5q12 -1 15 -6.5t3 -21.5q0 -20 -17 -20z" />
<glyph unicode="U" horiz-adv-x="756" d="M742 663q0 -12 -7 -16t-17 -5t-19.5 -5t-16.5 -20t-7 -45q0 -2 -0.5 -5t-0.5 -5v-227q0 -8 0.5 -23.5t0.5 -23.5v-32q0 -70 -17 -126.5t-72 -95.5q-71 -49 -189 -49q-68 0 -121.5 14.5t-83.5 33.5t-52 46.5t-29.5 43t-12.5 33.5q-13 45 -13 128q0 12 0.5 38t0.5 38v252 q0 10 -3 15.5t-8.5 8t-13 3.5t-17.5 2q-27 3 -27 24q0 24 20 24q2 0 33.5 -1t67.5 -2h6q28 0 52 1t38 1.5t17 0.5q19 0 19 -26q0 -17 -15.5 -20.5t-46.5 -5.5q-32 -4 -32 -35v-313q0 -67 11.5 -112.5t49.5 -79.5q60 -55 180 -55q140 0 183 91q19 39 19 111v14q0 10 -0.5 31 t-0.5 31v272q0 12 -2 20.5t-5.5 14t-9 8.5t-13 5t-17 3t-20.5 2q-22 2 -22 22q0 22 19 22q3 0 14 -0.5t31 -1.5t43 -1t43 1t31 1.5t14 0.5q18 0 18 -26z" />
<glyph unicode="V" horiz-adv-x="830" d="M45 689q3 0 17.5 -0.5t40 -1.5t54.5 -1q28 0 52 1t37.5 1.5t16.5 0.5q18 0 18 -19q0 -9 -2.5 -14t-8.5 -8t-17 -4.5t-28 -4.5q-27 -3 -27 -26q0 -8 6 -20q67 -149 144 -292t88 -156q4 -4 9 -4q7 0 11 8q116 211 200 436q6 18 6 22q0 23 -22 30q-8 3 -26.5 3t-28.5 4.5 t-10 19.5q0 25 22 25q3 0 16 -0.5t36 -1.5t50 -1t50 1t36 1.5t16 0.5q22 0 22 -27q0 -12 -7.5 -17t-18 -5.5t-25.5 -6t-25 -16.5q-11 -12 -38.5 -79.5t-96.5 -217.5t-161 -320q-12 -20 -25 -20q-14 0 -26 20l-182 329q-75 141 -98 193t-35.5 77.5t-22.5 32.5q-3 2 -16 7.5 t-21.5 12.5t-8.5 17q0 20 29 20z" />
<glyph unicode="W" horiz-adv-x="1002" d="M38 689q2 0 14.5 -0.5t34 -1.5t47.5 -1q25 0 46 1t33.5 1.5t14.5 0.5q18 0 18 -25q0 -13 -8.5 -17.5t-19 -3.5t-23 -1t-18.5 -9q-5 -6 -5 -13t3 -13q53 -168 156 -443q7 -18 15 -18h3q1 0 3.5 3t4 6t5.5 13l9 20l13 32l17 43l23 59l29 74q2 8 2 12v1q0 6 -66 197 q-10 28 -17.5 32t-52.5 6q-17 0 -17 22q0 23 23 23q3 0 16 -0.5t36.5 -1.5t50.5 -1h1q27 0 50 1t36 1.5t16 0.5q17 0 17 -22q0 -7 -2 -11t-7 -6.5t-13.5 -3.5t-20.5 -2q-31 -4 -31 -25q0 -3 2 -13q47 -143 107.5 -294.5t72.5 -168.5q7 -9 12 -9h1q10 0 16 18q65 137 115 288 t50 176q0 12 -7.5 17.5t-22 6.5t-36.5 4q-20 2 -20 23q0 22 18 22q3 0 16 -0.5t35.5 -1.5t49.5 -1h1q26 0 48.5 1t35 1.5t15.5 0.5q17 0 17 -23q0 -13 -8.5 -18.5t-20 -5t-24.5 -4.5t-20 -18l-26 -76q-26 -75 -84 -219.5t-130 -298.5q-22 -48 -41 -48q-23 0 -42 53l-104 265 q-16 38 -19 38q-2 0 -4 -4l-37 -95l-28 -76l-23 -58l-17 -45l-12 -30q-5 -14 -8.5 -20.5t-5.5 -12t-4.5 -7.5t-3.5 -3t-4 -2q-4 -3 -9 -3q-14 0 -24 19.5t-15 36.5q-47 114 -89 228t-65 183l-38 121q-17 53 -18 55q-7 17 -30 18t-28 8q-5 5 -5 14q0 28 25 28z" />
<glyph unicode="X" horiz-adv-x="665" d="M156 686q30 0 55.5 1t39.5 1.5t17 0.5q10 0 14.5 -5.5t4.5 -23.5q0 -11 -11 -15t-24 -3.5t-24 -5t-11 -19.5q0 -6 12 -30l75 -125l30 -46.5t7 -7.5t4 2q84 116 106 149t22 52q0 11 -4.5 18t-12 9.5t-17.5 3.5t-21 1q-26 2 -26 29q0 17 16 17q3 0 18 -0.5t41 -1.5t56 -1 q31 0 57 1t41.5 1.5t18.5 0.5q18 0 18 -18t-8.5 -24.5t-21 -6t-30.5 -2.5t-32 -13q-12 -9 -33 -35t-29 -39q-130 -184 -130 -188t172 -276q8 -13 13 -19.5t12 -12t13 -6.5l20 -3q12 -2 28 -3q26 -4 26 -28q0 -21 -17 -21l-18 2q-18 1 -49 2.5t-62 1.5q-30 0 -61 -1.5 t-49 -2.5l-18 -2q-19 0 -19 21q0 10 3 15t10 8t18.5 4.5t28.5 3.5q22 3 22 22v2q0 6 -5.5 16.5t-33.5 56.5l-90 142q0 3 -3 3h-1q-1 0 -5 -5l-7 -9l-16 -23l-22 -33l-37 -52l-49 -71q-11 -15 -11 -26q0 -8 3.5 -13t11 -7t19.5 -3l28 -4q27 -4 27 -26t-18 -22l-16 2 q-15 1 -41 2.5t-52 1.5t-52 -1.5t-41 -2.5l-16 -2q-15 0 -15 19q0 11 2 16.5t7 8.5t15 4.5t25 4.5q14 3 23.5 7.5t18 13t18.5 22.5l24 34q147 206 147 209q0 4 -159 258q-21 34 -34 40.5t-49 9.5q-25 2 -25 26q0 22 20 22q3 0 18 -0.5t41 -1.5t56 -1h3z" />
<glyph unicode="Y" horiz-adv-x="667" d="M490 21v-8q0 -19 -16 -19l-20 2q-20 1 -54 2.5t-67 1.5q-34 0 -68 -1.5t-54 -2.5l-20 -2q-25 0 -25 28q0 13 5.5 17.5t23 6t49.5 2.5h3q9 1 13 2t8.5 6t4.5 14v207q0 12 -2 19.5t-7 15.5l-12 20l-184 295q-10 12 -29 14t-24 12q-4 6 -4 14q0 22 25 22q3 0 17 -0.5 t39 -1.5t54 -1t53.5 1t38.5 1.5t17 0.5q18 0 18 -20q0 -15 -5.5 -20.5t-20 -6.5t-39.5 -3q-26 -3 -26 -23v-2q0 -7 19 -41l123 -212q8 -14 14 -14q2 0 8 6l112 153q38 54 50.5 75.5t12.5 35.5q0 16 -14.5 21.5t-31.5 4t-31.5 4t-14.5 22.5q0 20 21 20q3 0 14.5 -0.5 t31.5 -1.5t43 -1h3q32 1 59.5 2t29.5 1q14 0 21 -6.5t7 -13.5q0 -11 -21 -26.5t-31 -28.5l-145 -187q-77 -102 -90.5 -121.5t-13.5 -40.5v-195q0 -12 7 -16t31.5 -5.5t71.5 -3.5q22 -1 22 -24z" />
<glyph unicode="Z" horiz-adv-x="629" d="M16 511q0 4 2 23.5t4 53t2 73.5v37q0 28 21 28q15 0 26 -24q8 -27 55 -27h436q24 0 24 -18q0 -5 -5 -13t-25 -34l-60 -79l-145 -182q-109 -132 -160 -222q-5 -7 -5 -15q0 -15 18 -19.5t82 -8.5q48 -3 98 -3h21q66 0 98.5 10.5t49.5 50.5q7 16 14 57t10 47q7 10 19 10 q8 0 16 -7t8 -21v-1q0 -19 -2 -34.5t-5 -35t-5 -34.5q-1 -53 -7 -86.5t-32 -36.5h-523h-2q-28 0 -28 21q0 9 8 19q194 275 422 527q14 16 14 22q0 11 -14 11h-323q-25 0 -35 -6.5t-16 -27t-15 -58.5q-5 -22 -21 -22q-20 0 -20 25z" />
<glyph unicode="[" horiz-adv-x="378" d="M125 -155q0 -5 4 -5q1 0 7.5 4.5t20 10t31.5 8.5q4 1 4 6v780q0 4 -4.5 6.5t-11 3.5t-19 5.5t-25.5 12.5q-2 2 -4 2q-3 0 -3 -5v-829zM104 744q5 0 39 -18t79 -18q29 0 58 7t46 15l17 7q5 0 8.5 -5.5t3.5 -10.5q0 -14 -35 -40.5t-81 -27.5q-6 0 -6 -7l1 -773q0 -7 4 -9 t11.5 -2t23.5 -5t34 -16q19 -12 33 -26.5t14 -21.5q0 -13 -12 -13q-2 0 -19.5 9t-47.5 17.5t-64 8.5q-30 0 -56 -6.5t-41 -12.5t-18 -6q-16 0 -16 22v414q0 7 -4 7q-1 0 -8.5 -5t-15.5 -5q-29 0 -29 41q0 36 29 36q8 0 15 -3.5t8 -3.5q4 0 4 7v410q0 34 25 34z" />
<glyph unicode="\" horiz-adv-x="235" d="M232 -200q0 -9 -12.5 -17.5t-18.5 -8.5q-11 0 -11 11q-187 807 -187 811q0 8 11.5 15t19.5 7q11 0 15 -15q55 -273 119 -537t64 -266z" />
<glyph unicode="]" horiz-adv-x="378" d="M253 -155v829q0 5 -3 5q-2 0 -4 -2q-13 -8 -25.5 -12.5t-19 -5.5t-11 -3.5t-4.5 -6.5v-780q0 -5 4 -6q18 -3 31.5 -8.5t20 -10t7.5 -4.5q4 0 4 5zM274 744q25 0 25 -34v-410q0 -7 4 -7q1 0 8 3.5t15 3.5q29 0 29 -36q0 -41 -29 -41q-8 0 -15.5 5t-8.5 5q-4 0 -4 -7v-414 q0 -22 -16 -22q-3 0 -18 6t-41 12.5t-56 6.5q-34 0 -64 -8.5t-47.5 -17.5t-19.5 -9q-12 0 -12 13q0 7 14 21.5t33 26.5q18 11 34 16t23.5 5t11.5 2t4 9l1 773q0 7 -6 7q-46 1 -81 27.5t-35 40.5q0 5 3.5 10.5t8.5 5.5l17 -7q17 -8 46 -15t58 -7q45 0 79 18t39 18z" />
<glyph unicode="^" horiz-adv-x="423" d="M73 462q-10 0 -16 6.5t-6 15.5q0 8 7 20l81 138q27 45 35.5 55.5t19.5 15.5q8 3 15 3t13.5 -2.5t11.5 -7t9.5 -10t8 -11t7.5 -10.5l98 -156q16 -26 16 -36t-7 -16.5t-17 -6.5t-19.5 7t-16.5 17l-14 18q-59 77 -70 90.5t-17 13.5q-4 -1 -7.5 -4t-22.5 -26l-62 -76 q-9 -10 -15.5 -18.5t-14.5 -14t-17 -5.5z" />
<glyph unicode="_" horiz-adv-x="527" d="M27 -50v4q0 25 14 25h446q14 0 14 -25v-2q0 -28 -14 -28h-446q-14 0 -14 26z" />
<glyph unicode="`" d="M8 664q0 16 11 26.5t26 10.5h1q28 0 55 -42l90 -133q15 -23 15 -32q0 -8 -5.5 -14t-13.5 -6h-2q-6 0 -13.5 6t-39.5 38l-99 101q-25 25 -25 45z" />
<glyph unicode="a" horiz-adv-x="423" d="M29 345q0 29 47.5 59t106.5 30q19 0 38.5 -4t44 -14t41.5 -34t21 -58q2 -24 2 -36v-197q0 -18 7 -28.5t13.5 -13t13.5 -2.5q18 0 28 16.5t16 16.5q9 0 9 -13q0 -23 -21 -51t-56 -28q-15 0 -29.5 6.5t-22 13.5t-13.5 14l-6 7q-1 0 -1 0.5t-1 0.5q-2 0 -3.5 -1.5t-7 -7.5 t-16.5 -13q-43 -28 -93 -28q-51 0 -82.5 32.5t-31.5 79.5v1q0 56 42 89q19 15 50 25.5t57.5 14.5t47.5 6l21 2q8 2 8 14v36q0 52 -24 80q-25 27 -58 27q-53 0 -86 -67q-8 -11 -22 -11q-15 0 -27.5 10t-12.5 26zM171 35q22 0 42 9.5t28 17.5t13 14q6 8 6 23v24v41 q0 18 -1.5 23.5t-8.5 5.5q-13 0 -31.5 -2t-45.5 -11t-42 -23q-24 -20 -24 -54q0 -37 21 -55q14 -13 43 -13z" />
<glyph unicode="b" horiz-adv-x="486" d="M142 395q0 -6 4 -6q2 0 18.5 10.5t48 20.5t69.5 10q88 0 141.5 -61t53.5 -160q0 -38 -9 -73.5t-41 -75.5t-83 -59q-52 -20 -112 -20q-26 0 -55 9.5t-42 9.5q-17 0 -30.5 -10.5t-19.5 -10.5q-16 0 -16 30q0 59 1.5 293t1.5 292q0 14 -12 22q-33 20 -44.5 27.5t-11.5 12.5 q0 8 13 13q111 44 114 44q14 -2 14 -20q0 -33 -1.5 -160t-1.5 -138zM414 192q0 81 -50 133t-117 52q-35 0 -71.5 -16.5t-36.5 -32.5v-256q0 -1 -0.5 -3.5t-0.5 -3.5q0 -18 14 -24q46 -19 92 -19q76 0 123 47t47 123z" />
<glyph unicode="c" horiz-adv-x="381" d="M209 -18q-85 0 -138.5 61t-53.5 154q0 102 59 166.5t155 64.5q53 0 90 -22.5t37 -51.5q0 -17 -12 -27.5t-28 -10.5q-22 0 -56 30t-65 30q-46 0 -80 -45.5t-34 -108.5q0 -71 45 -123.5t113 -52.5q34 0 59.5 13.5t40 27t22.5 13.5q7 0 12 -5t5 -12q0 -8 -6 -16 q-27 -36 -69.5 -60.5t-95.5 -24.5z" />
<glyph unicode="d" horiz-adv-x="494" d="M238 383q-75 0 -114.5 -44.5t-39.5 -122.5q0 -85 56.5 -135t117.5 -50q30 0 59 12t35 31q3 12 3 23v224q0 14 -10 24q-41 38 -107 38zM240 423q29 0 54.5 -3.5t39.5 -7.5l14 -4q7 0 7 9v168q0 8 -2 12t-8 8t-18 9l-32 12q-19 5 -19 16q0 5 9 11q124 61 129 61 q12 0 12 -14q0 -9 -1 -51t-1.5 -115t-0.5 -158q0 -267 3 -294q0 -7 4.5 -9.5t14.5 -3t28 -1.5q19 0 19 -14q0 -7 -5 -10.5t-22.5 -11.5t-31.5 -16q-19 -10 -35 -21.5t-23 -17t-11 -5.5q-8 0 -8 10v33q0 3 -2 3l-9 -6q-9 -6 -22 -13.5t-37 -13.5t-51 -6q-96 0 -157 66 t-61 162q0 88 56 152t166 64h1z" />
<glyph unicode="e" horiz-adv-x="409" d="M22 206q0 102 53.5 163.5t131.5 61.5q49 0 95.5 -27.5t76.5 -68.5q8 -10 8 -22v-1q0 -19 -29.5 -32.5t-51.5 -17.5q-155 -52 -184 -62.5t-29 -16.5q0 -9 6 -28.5t20 -47.5t46 -48.5t76 -20.5q68 0 119 49q14 14 23 14q16 0 16 -15q0 -8 -7 -16q-32 -41 -78.5 -65 t-98.5 -24q-26 0 -51.5 7t-51.5 23.5t-45.5 41.5t-32 64.5t-12.5 88.5zM290 310q0 13 -34 39.5t-71 26.5q-44 0 -70 -38.5t-26 -104.5q0 -7 5 -7q2 0 93 35.5t94 36.5q9 4 9 12z" />
<glyph unicode="f" horiz-adv-x="292" d="M33 -6q-15 0 -15 25q0 8 4 11t14.5 4.5t28.5 4.5q6 1 9.5 4t4.5 7t1 9v4q4 50 4 287q0 8 -8.5 9t-44.5 1q-21 0 -21 18q0 30 21 30q37 0 44 1t7 9v1q3 122 43 192q29 49 82 79t101 30q37 0 54.5 -16.5t17.5 -35.5q0 -15 -11.5 -27t-30.5 -12q-14 0 -40.5 12t-42.5 12 q-51 0 -77 -61.5t-26 -155.5v-9q0 -10 1.5 -13t8.5 -3h98q22 0 22 -20v-1q0 -31 -26 -31h-94q-9 0 -9 -8v-287v-3q0 -23 20 -24q35 -1 46 -3.5t11 -17.5q0 -22 -16 -22l-13 2q-13 1 -34.5 2.5t-42.5 1.5q-22 0 -43.5 -1.5t-34.5 -2.5z" />
<glyph unicode="g" horiz-adv-x="440" d="M187 399q-38 0 -62.5 -30.5t-24.5 -79.5q0 -58 29 -100t74 -42q40 0 64.5 32t24.5 79q0 55 -29.5 98t-75.5 43zM83 -88q0 -44 46.5 -71.5t116.5 -27.5q69 0 98 22.5t29 50.5q0 41 -40 59q-20 10 -47 13.5t-77 5.5t-87 6h-3q-6 0 -17 -11q-19 -19 -19 -47zM22 277 q0 64 46.5 110t115.5 46q42 0 81.5 -18t44.5 -18q30 0 52 32q14 23 29 23q14 0 26 -13t12 -28q0 -17 -15 -30t-35.5 -21t-21.5 -9q-4 -4 -4 -8q0 -2 2.5 -10t5.5 -22t3 -31q0 -70 -48 -119t-118 -49q-19 0 -36.5 4.5t-21.5 4.5q-14 0 -29.5 -17.5t-15.5 -33.5q0 -26 42 -35 t108.5 -11t94.5 -10q45 -13 68 -44t23 -67q0 -52 -48.5 -94.5t-159.5 -42.5q-47 0 -83 9t-57 22t-34 31t-17.5 33t-4.5 31q0 14 4 27.5t9.5 22t12.5 16.5t12 12t9 6l5 3q2 2 2 4q0 1 -9 7t-18.5 19.5t-9.5 33.5q0 10 3 21t8 20t11 17t12 15l12 10q4 5 8 8l3 3q1 1 1 3 q0 4 -9 9t-24.5 19t-27.5 36q-19 32 -19 73z" />
<glyph unicode="h" horiz-adv-x="514" d="M293 8v7q0 14 12 17t45 6q15 2 17.5 15t2.5 72q0 98 -12.5 141.5t-35.5 68.5q-36 36 -81 36q-30 0 -56.5 -16.5t-30.5 -32.5q-1 -4 -1 -13q0 -240 2 -247q3 -14 15 -20t25.5 -6t24 -4.5t10.5 -16.5q0 -21 -11 -21l-13 2q-13 1 -35 2.5t-44 1.5q-23 0 -45.5 -1.5 t-35.5 -2.5l-13 -2q-12 0 -12 20q0 8 3.5 12t11.5 5.5t22 4.5q11 2 16.5 8.5t6 11t1.5 14.5q5 152 5 275v4q0 221 -4 245q-2 12 -36.5 20.5t-34.5 21.5q0 11 16 19q110 64 115 64h1q15 0 15 -19l-1 -308q0 -7 5 -7q1 0 16.5 9.5t43.5 18.5t58 9q95 0 134 -91 q15 -36 20.5 -82.5t8.5 -182.5q0 -10 2 -16t7.5 -9.5t10.5 -4.5t17 -2q17 -2 17 -18q0 -22 -13 -22l-13 2q-12 1 -34 2.5t-44 1.5q-21 0 -42.5 -1.5t-34.5 -2.5l-13 -2q-11 0 -11 14z" />
<glyph unicode="i" horiz-adv-x="243" d="M104 618q0 19 14 33t34 14t34 -13.5t14 -32.5q0 -20 -14.5 -34t-34.5 -14t-33.5 13.5t-13.5 33.5zM94 121v95q0 43 0.5 68t0.5 30q0 8 -3.5 12t-18.5 10.5t-46 18.5q-12 5 -12 13t9.5 13.5t17.5 7.5q108 52 110 52h1q14 0 14 -16l-1 -32q-2 -32 -3.5 -86.5t-1.5 -108.5 v-33q0 -91 3 -108.5t20 -19.5q16 -2 26 -3.5t14.5 -5.5t4.5 -12q0 -22 -12 -22l-13 2q-13 1 -35 2.5t-44 1.5t-44 -1.5t-35 -2.5l-13 -2q-15 0 -15 17q0 16 6 19t43 8q17 3 22 11.5t5 24.5v47z" />
<glyph unicode="j" horiz-adv-x="232" d="M94 102q0 56 0.5 104t1 75t0.5 33q0 11 -3.5 16.5t-17 14.5t-39.5 24q-9 5 -9 12q0 5 4.5 8.5t31.5 14.5l84 36q4 2 7 2q10 0 10 -16q0 -5 -0.5 -29.5t-1 -67.5t-0.5 -94q0 -79 1 -147t2 -106.5t1 -46.5q0 -21 -15 -44q-14 -20 -32 -41.5t-54 -51t-63 -29.5 q-16 0 -27 9.5t-11 24.5q0 16 12 29.5t32 13.5q6 0 15.5 -1.5t14.5 -1.5q12 0 23 4.5t22.5 23.5t11.5 51q0 5 -0.5 28t-0.5 64v88zM104 604q0 20 14 33.5t34 13.5t34 -13.5t14 -32.5t-14.5 -33t-34.5 -14t-33.5 13.5t-13.5 32.5z" />
<glyph unicode="k" horiz-adv-x="454" d="M224 12q0 13 7.5 18t16 5t16 3.5t7.5 13.5q0 14 -47 76t-56 71q0 2 -4 2t-15.5 -12.5t-12.5 -16.5q-1 -3 -1 -11v-103q0 -14 7 -17t39 -7q21 -5 21 -21q0 -17 -14 -17q-2 0 -11.5 1t-27 2t-38.5 1t-38.5 -1t-27.5 -2t-12 -1q-17 0 -17 18q0 17 24.5 20.5t26.5 21.5v539 q0 16 -12 24q-45 31 -46 32l-4 8q0 10 20 17q95 42 99 42q11 0 11 -17v-472q0 -4 3 -4q4 0 6 4q67 66 83 84t16 34t-13 26.5t-13 15.5v10q0 13 21 13h58q29 0 54 1t39 1.5t17 0.5q15 0 15 -19q0 -12 -5 -15.5t-23 -5.5t-30 -5q-21 -6 -45.5 -23.5t-39.5 -32.5l-60 -61 q-7 -7 -7 -9q0 -3 15 -20l101 -122q17 -21 28 -32t31.5 -23t42.5 -15q16 -2 16 -17q0 -21 -16 -21l-13 2q-14 1 -37 2.5t-46 1.5t-46 -1.5t-37 -2.5l-13 -2q-13 0 -13 17v1z" />
<glyph unicode="l" horiz-adv-x="239" d="M228 14q0 -20 -12 -20l-14 2q-13 1 -35.5 2.5t-44.5 1.5q-21 0 -42.5 -1t-34.5 -3l-13 -1q-14 0 -14 18v3q0 13 6 16t35 6q18 2 23 11t5 27v509q0 7 -2 11t-7.5 6.5t-13.5 7.5q-30 17 -41.5 24.5t-11.5 14.5v1q0 5 16 14t107 55q6 4 12 4q14 0 14 -19v-633 q0 -12 2.5 -18.5t8 -9.5t15.5 -4.5t25 -4.5q17 -3 17 -20z" />
<glyph unicode="m" horiz-adv-x="723" d="M142 378q1 0 15.5 11t40 22t52.5 11q18 0 35.5 -5.5t30 -13.5t22 -16t14.5 -14l6 -6q1 -1 4 -1q2 0 3.5 0.5t4 2.5t5.5 5t11 8l18 11q50 29 97 29q44 0 81.5 -26t53.5 -83q11 -38 11 -117v-127q0 -16 4 -22t14.5 -9t29.5 -6q14 -2 14 -18q0 -20 -15 -20q-2 0 -13 1.5 t-30 3t-41 1.5t-41.5 -1.5t-30.5 -3t-13 -1.5q-16 0 -16 17q0 10 3.5 14t13.5 6.5t30 5.5q14 2 17 8t3 19v139q0 110 -41 146q-27 22 -62 22q-31 0 -61 -17t-30 -29l1 -5q1 -5 2 -12.5t2 -21t1 -28.5v-193q0 -1 -0.5 -4t-0.5 -4v-1q0 -9 3.5 -13t14.5 -5.5t31 -3.5 q19 -3 19 -19q0 -21 -13 -21l-13 2q-13 1 -35.5 2.5t-44.5 1.5t-44.5 -1.5t-35.5 -2.5l-13 -2q-14 0 -14 22q0 11 11 14t43 7q16 3 21 11t5 27v185q0 63 -32 87q-31 24 -70 24q-29 0 -49 -13t-27 -26q-4 -10 -4 -26v-241q0 -11 2 -16.5t8 -8.5t16 -4.5t27 -4.5q14 -2 14 -21 q0 -16 -13 -16l-12 2q-12 1 -32.5 2.5t-40.5 1.5q-19 0 -35.5 -1t-26 -2t-11.5 -1q-14 0 -14 20q0 10 8 14t18.5 4.5t19.5 6.5t10 19v248q0 10 -2 14.5t-11 12t-27 20.5q-9 6 -9 12t10 13t71 45q16 9 19 9q9 0 9 -12v-38q0 -6 4 -6z" />
<glyph unicode="n" horiz-adv-x="499" d="M141 377q0 -4 3 -4h1l11 9q11 9 26.5 20.5t42.5 21t57 9.5h2q20 0 40 -5.5t43.5 -19.5t39 -44.5t19.5 -74.5q2 -17 2 -51v-19q0 -15 -0.5 -54t-0.5 -100v-2q0 -10 2.5 -16t8.5 -8.5t15 -3.5t22 -3q14 -2 14 -18q0 -20 -15 -20q-3 0 -13.5 1.5t-29.5 3t-41 1.5 q-20 0 -39.5 -1.5t-30.5 -2.5l-12 -2q-14 0 -14 20q0 9 4.5 12.5t16 5.5t31.5 5q16 2 16 24v155q0 76 -13 108q-14 33 -44 46.5t-56 13.5q-39 0 -69 -23.5t-34 -41.5q-1 -4 -1 -13v-237v-3q0 -25 22 -28q21 -3 33 -5t16.5 -6.5t4.5 -15.5q0 -18 -13 -18l-14 2q-13 2 -35 3.5 t-44 1.5q-21 0 -42 -1.5t-33 -2.5l-13 -2q-16 0 -16 18q0 14 6 17t33 7q17 3 21.5 10.5t4.5 23.5v239q0 17 -5 23.5t-40 32.5q-6 6 -6 10v1q0 5 12.5 12.5t82.5 44.5q6 4 10 4q12 0 12 -15v-39v-3z" />
<glyph unicode="o" horiz-adv-x="467" d="M21 204q0 101 64 164.5t152 63.5q90 0 149.5 -64t59.5 -164q0 -103 -62 -163t-151 -60q-94 0 -153 64.5t-59 158.5zM236 30q62 0 102 50.5t40 119.5q0 78 -44.5 131.5t-103.5 53.5q-49 0 -90 -43t-41 -133q0 -79 38 -129t99 -50z" />
<glyph unicode="p" horiz-adv-x="494" d="M250 27q63 0 110.5 47.5t47.5 120.5q0 72 -47 124.5t-108 52.5q-39 0 -66 -21q-29 -21 -29 -62v-215q0 -19 26 -31q32 -16 66 -16zM286 431q82 0 135.5 -63.5t53.5 -152.5q0 -99 -66.5 -160.5t-171.5 -61.5q-15 0 -30.5 1.5t-24.5 3.5l-9 1q-7 0 -7 -11v-137v-3 q0 -24 22 -26q45 -2 62.5 -6t17.5 -25q0 -15 -12 -15q-2 0 -14.5 1t-33.5 2t-46 1q-32 0 -64 -2t-50 -4l-19 -2q-16 0 -16 20q0 12 11.5 16t46.5 10q22 4 22 28v462v2q0 15 -13 20q-49 21 -58 25.5t-9 9.5v1q0 4 14 12l93 55q16 8 17 8q8 0 8 -11v-59q0 -6 3 -6l13 14 q13 14 40.5 30t61.5 21q8 1 23 1z" />
<glyph unicode="q" horiz-adv-x="525" d="M259 401q-71 0 -121 -49t-50 -119q0 -76 55 -128.5t130 -52.5q27 0 55 8.5t38 17.5q9 9 9 30q0 47 -3 235q0 19 -14 29q-44 29 -99 29zM16 213q0 38 14.5 75t44.5 70.5t84 54.5t124 21q37 0 75 -6.5t39 -6.5q17 0 26 12.5t12 12.5q11 0 11 -55q0 -4 0.5 -13t0.5 -14v-503 q0 -30 10.5 -38t44.5 -12q14 -3 14 -14q0 -22 -18 -22l-18 1q-17 1 -37 1q-34 0 -66.5 -3t-50.5 -6l-18 -3q-18 0 -18 18q0 10 6 14.5t18.5 7t30.5 5.5q29 6 29 40v172q0 7 -6 7q-2 0 -18 -9.5t-46 -19t-65 -9.5q-91 0 -157 65t-66 157z" />
<glyph unicode="r" horiz-adv-x="358" d="M145 377q1 0 44.5 29.5t59.5 35.5q12 4 29 4q27 0 52.5 -12.5t25.5 -31.5v-1q-1 -11 -11 -21.5t-16 -13.5q-6 -5 -18 -12.5t-23 -7.5q-12 0 -27 12.5t-32 12.5q-21 0 -46 -15.5t-32 -25.5q-4 -6 -4 -18v-240v-4q0 -28 25 -30q29 -2 45.5 -3.5t22 -5.5t5.5 -15 q0 -20 -14 -20l-15 2q-14 1 -38 2.5t-48 1.5q-25 0 -49.5 -1.5t-38.5 -2.5l-14 -2q-16 0 -16 17q0 15 12.5 19t32.5 6q18 4 18 24v265q0 13 -10 21t-45 32q-3 3 -4 7q0 3 14 9l91 45l9 3q12 0 12 -20v-40q0 -5 3 -5z" />
<glyph unicode="s" horiz-adv-x="338" d="M31 309q0 47 39.5 82.5t104.5 35.5q13 0 24.5 -1.5t18 -2.5t7.5 -1q4 0 11.5 5t13.5 5q12 0 16 -19l11 -59q8 -44 8 -46q0 -16 -23 -16q-9 0 -14 7.5t-9 21t-9 20.5q-11 15 -35 27t-47 12q-26 0 -44.5 -15t-18.5 -38q0 -50 79 -72q34 -6 72.5 -19t62.5 -41q30 -35 30 -79 q0 -52 -41 -93.5t-111 -41.5q-38 0 -78 13t-60 37q-12 13 -12 34q0 15 -0.5 35t-0.5 25q0 19 3.5 25t14.5 6t13.5 -9t3.5 -25.5t6 -27.5q9 -19 42 -39t72 -20q34 0 57.5 18.5t23.5 48.5t-24 49.5t-50.5 24t-45.5 11.5q-111 32 -111 122z" />
<glyph unicode="t" horiz-adv-x="333" d="M40 365q-20 0 -20 13q0 6 14 18t40.5 40.5t49.5 68.5q11 18 20 18q13 0 13 -16q0 -7 -0.5 -35t-0.5 -35q0 -20 20 -20h90q2 0 4 -0.5t4 -0.5q26 0 26 -19q0 -18 -9 -29q-5 -5 -18 -5h-117q-10 0 -10 -9q-1 -187 -1 -234q0 -74 51 -74q27 0 64 30t45 30t13 -5.5t5 -12.5 q0 -6 -7 -17q-79 -90 -139 -90q-36 0 -66 29t-35 93q-1 11 -1 32q0 25 2 119t2 102q0 9 -7 9h-32z" />
<glyph unicode="u" horiz-adv-x="505" d="M359 33l-18 -13q-18 -12 -51 -25t-70 -13q-61 0 -102.5 38.5t-50.5 106.5q-3 30 -3 61q0 18 0.5 86.5t0.5 74.5q0 18 -27 28q-5 2 -15 4.5t-13 5.5t-3 11v3q0 13 11 14q100 6 104 6q10 0 10 -12v-205q0 -67 18 -103q14 -27 41.5 -47t64.5 -20q49 0 85 36q17 19 17 30v246 q0 10 -3 16t-10.5 9t-20.5 5.5t-32 5.5q-15 3 -15 16q0 15 14 17q32 1 58 2t36 1.5t17 0.5h12q15 0 15 -20v-313q0 -8 8.5 -12t41.5 -18q8 -3 8 -12t-2 -12.5t-9 -6t-16.5 -4.5t-29.5 -10t-43 -21q-6 -4 -11 -4q-14 0 -14 20v23q0 4 -3 4z" />
<glyph unicode="v" horiz-adv-x="490" d="M298 396v5q0 14 12 14q2 0 12.5 -0.5t28.5 -1.5t39 -1t39 1t28.5 1.5t12.5 0.5q15 0 15 -19q0 -18 -24.5 -19.5t-30.5 -10.5q-2 -4 -6 -20q-34 -123 -82 -234.5t-63 -127.5q-7 -9 -19 -9q-17 0 -33 31q-76 135 -126.5 245t-51.5 112q-6 8 -15.5 11t-16 3t-11 6t-4.5 19 t12 13q3 0 15 -0.5t33.5 -1.5t46.5 -1q26 0 47.5 1t33.5 1.5t15 0.5q14 0 14 -20q0 -11 -5 -14.5t-23 -4t-28 -2.5q-20 -2 -20 -18q0 -14 36 -101.5t83 -167.5l1 -1q4 -7 8 -7q5 0 5 5q49 85 72.5 167t23.5 108q0 9 -7 13t-20 4.5t-32 2.5h-2q-13 3 -13 17z" />
<glyph unicode="w" horiz-adv-x="752" d="M735 415q15 0 15 -17q0 -16 -12 -20t-19 -2q-14 -3 -23 -22.5t-17.5 -54.5t-42.5 -117t-88 -182q-13 -25 -28 -25q-7 0 -13.5 5.5t-14.5 18t-20 33.5l-29 55l-55 107q-8 16 -11 16t-40 -79q-70 -142 -75 -147q-7 -9 -18 -9q-15 0 -29 26q-47 90 -86.5 177t-58.5 135 t-20 49q-5 9 -13.5 12.5t-14.5 3.5t-11 4.5t-5 15.5q0 17 18 17q2 0 11.5 -0.5t26.5 -1.5t36 -1h3q19 0 35 1t25.5 1.5t11.5 0.5q12 0 12 -17q0 -12 -9.5 -17t-21.5 -4t-21.5 -2t-9.5 -13q0 -7 6 -19q47 -125 112 -251q4 -8 10 -8q4 0 7 3.5t3 4.5q28 44 59 103.5t32 71.5v1 q0 5 -17 41.5t-21 42.5q-8 13 -22 18t-25 4.5t-19.5 3t-8.5 14.5q0 23 16 23q3 0 16 -0.5t36.5 -1.5t50.5 -1t50.5 1t36.5 1.5t16 0.5q14 0 14 -15v-6q0 -8 -2.5 -10.5t-15.5 -4t-40 -3.5q-23 -2 -23 -21q0 -16 40 -100t85 -156q8 -14 16 -14q9 0 12 9q46 81 71.5 161 t25.5 99q0 11 -6.5 16t-20 6t-34.5 2q-18 2 -18 20q0 17 12 17q2 0 12 -1t27.5 -2t38.5 -1t39 1t28.5 2t12.5 1z" />
<glyph unicode="x" horiz-adv-x="443" d="M24 415q2 0 12.5 -0.5t29 -1.5t40.5 -1t41 1t29.5 1.5t12.5 0.5q12 0 12 -14v-2q0 -2 0.5 -5t0.5 -4q0 -6 -3 -8.5t-11 -3.5t-22 -2q-16 -2 -16 -14q0 -4 14 -24l24 -32l16 -21l10 -13q4 -5 5.5 -6.5t2.5 -2t2 -0.5q2 0 5 3q70 93 70 98q0 11 -24.5 12.5t-24.5 13.5 q0 25 13 25q2 0 11 -0.5t25 -1.5t35 -1h3q19 0 35.5 1t26 1.5t11.5 0.5q13 0 13 -15t-6 -18t-31 -6q-20 -3 -29 -9t-23 -22q-85 -112 -85 -114t138 -177q6 -8 9.5 -11.5t7 -5.5t8 -2.5t12.5 -2.5q10 -2 10 -12q0 -24 -15 -24q-2 0 -12.5 1t-28.5 2t-40 1t-40 -1t-28.5 -2 t-12.5 -1q-12 0 -12 17q0 11 5 15t21 6t24 4q12 4 12 13q0 2 -4 10q-92 114 -93 115h-1q-1 1 -2 1q-3 0 -13 -13l-65 -88q-14 -18 -14 -25q0 -14 27.5 -17t31.5 -8q2 -3 2 -10q0 -20 -13 -20q-2 0 -11 1t-25.5 2t-35.5 1t-35 -1t-25.5 -2.5t-11.5 -1.5q-10 0 -10 21 q0 11 8 15t20 5.5t18 5.5q2 1 9 11l43 56l31 41l21 26q10 13 13 17.5t6 8.5l3 4v3q0 3 -4 7q-63 81 -93 116t-35 38.5t-20 5.5q-18 2 -18 22q0 17 13 17z" />
<glyph unicode="y" horiz-adv-x="468" d="M92 -223q-16 0 -27.5 10.5t-11.5 25.5q0 18 13 31t37.5 28.5t37.5 27.5q21 19 44 57t23 58q0 26 -111 248q-50 95 -55 102t-12.5 9.5t-12.5 2.5t-9 5t-4 16q0 17 14 17q2 0 12 -0.5t27.5 -1.5t38.5 -1t38.5 1t28 1.5t12.5 0.5q13 0 13 -16q0 -8 -1.5 -12.5t-5.5 -6.5 t-11.5 -2.5t-18.5 -1.5q-15 -2 -15 -14q0 -10 32 -86t77 -160q0 -6 7 -6q4 0 8 7q1 2 2 3q82 196 82 235q0 11 -5 16t-16 5.5t-27 1.5q-19 2 -19 19q0 18 19 18q2 0 12 -0.5t27.5 -1.5t38.5 -1h1q20 0 37.5 1t27 1.5t11.5 0.5q12 0 12 -20q0 -11 -5.5 -13.5t-33.5 -5.5 q-7 -1 -9.5 -2t-7.5 -12t-9.5 -25.5t-19.5 -53.5l-33 -84q-97 -236 -179 -360q-40 -62 -74 -62z" />
<glyph unicode="z" horiz-adv-x="361" d="M65 454h6q11 0 13 -18.5t15 -18.5h218q22 0 22 -15q0 -2 -6 -14l-198 -268q-29 -40 -29 -44q0 -11 16 -11h145q3 0 8.5 -0.5t6.5 -0.5q9 0 13 4.5t6.5 18t7.5 38.5q5 16 17 16q24 0 24 -17l-3 -20q-3 -19 -6.5 -53.5t-3.5 -69.5q0 -19 1 -37v-17q0 -20 -30 -20 q-17 0 -17 18v60q0 15 -17 15h-232q-30 0 -30 23q0 9 13 30l204 275q6 6 6 13q0 14 -20 14h-119q-7 0 -10 -3t-5.5 -13t-6.5 -29q-5 -16 -17 -16q-18 0 -18 13l3 13q2 14 4.5 38.5t2.5 50.5v30q0 15 16 15z" />
<glyph unicode="{" horiz-adv-x="251" d="M45 256q0 1 14.5 9t29.5 31.5t15 62.5q0 38 -13.5 112t-13.5 115q0 71 33 102.5t74 31.5q24 0 24 -5q0 -1 -11 -6.5t-26 -21t-23 -37.5q-7 -21 -7 -46q0 -27 13.5 -89.5t13.5 -103.5q0 -42 -11.5 -79t-23 -57t-11.5 -21q0 -2 11 -18t21.5 -47t10.5 -69q0 -33 -14 -96 t-14 -94q0 -32 10 -58t22 -38.5t22 -20.5l10 -8q0 -3 -16 -3q-42 0 -77 33.5t-35 107.5q0 40 16 107.5t16 97.5q0 23 -5.5 41.5t-14.5 30t-17 19t-15 11.5l-7 4q-1 1 -1 2z" />
<glyph unicode="|" horiz-adv-x="153" d="M77 -198h-4q-23 0 -23 13v890q0 13 24 13h2q27 0 27 -13v-890q0 -13 -26 -13z" />
<glyph unicode="}" horiz-adv-x="251" d="M177 586q0 -41 -13.5 -115t-13.5 -112q0 -24 5.5 -42.5t14 -29t16 -16.5t14.5 -9l8 -3q1 -1 1 -2q0 -4 -4 -5q-56 -31 -56 -104q0 -30 16 -97.5t16 -107.5q0 -74 -35 -107.5t-77 -33.5q-16 0 -16 3l10 8q10 8 22 20.5t22 38.5t10 58q0 31 -14 94t-14 96q0 38 10.5 69 t21.5 47t11 18t-4 10q-42 66 -42 147q0 41 13.5 103.5t13.5 89.5q0 31 -10.5 54t-23 33t-23 16.5t-10.5 7.5q0 5 24 5q41 0 74 -31.5t33 -102.5z" />
<glyph unicode="~" horiz-adv-x="451" d="M40 173q-4 0 -10 7.5t-6 12.5q0 4 22 38.5t37 49.5q29 31 66 31q29 0 75 -29t75 -29q25 0 46.5 13.5t36 30t15.5 16.5q4 2 6 2q5 0 14.5 -5.5t9.5 -12.5q0 -6 -19 -32.5t-56 -54.5t-75 -28q-36 0 -77.5 29.5t-66.5 29.5q-44 0 -86 -64q-3 -5 -7 -5z" />
<glyph unicode="&#xa9;" horiz-adv-x="772" d="M386 27q124 0 214.5 88t90.5 218q0 124 -88.5 214t-217.5 90q-127 0 -215.5 -90t-88.5 -215q0 -128 90.5 -216.5t214.5 -88.5zM30 332q0 146 103.5 251.5t252.5 105.5q148 0 252 -105.5t104 -251.5q0 -145 -103 -250.5t-254 -105.5q-145 0 -250 103.5t-105 252.5z M550 384q-10 0 -14 7t-4 16.5t-4 24t-13 26.5q-50 62 -129 62q-67 0 -118 -51.5t-51 -136.5q0 -87 52 -146.5t126 -59.5q54 0 100.5 33.5t63.5 90.5q4 10 14 10q11 0 11 -10l-15 -98q-2 -18 -18 -18h-18q-7 0 -9.5 -1t-8 -5t-11.5 -7q-56 -33 -119 -33q-98 0 -166 68.5 t-68 163.5q0 96 69.5 165t167.5 69q37 0 65.5 -8t43 -16.5t17.5 -8.5q2 0 7 11.5t17 11.5q10 0 12 -10q17 -116 17 -133q0 -9 -3 -13t-14 -4z" />
<glyph unicode="&#xad;" d="M199 335q16 0 16 -39q0 -14 -18 -28l-85 -60l-50 -36q-12 -9 -19.5 -13.5t-12.5 -4.5q-18 0 -18 26v14q0 10 3.5 14.5t15.5 13.5l137 96q25 17 31 17z" />
<glyph unicode="&#xae;" horiz-adv-x="519" d="M242 676q45 0 65.5 -20.5t20.5 -45.5q0 -24 -14.5 -40.5t-27.5 -21.5q29 -33 58 -80q12 -22 26 -22q4 0 8 4t8 4q6 0 6 -7q0 -6 -10 -17t-24 -11q-22 0 -40 27l-66 91q-2 5 -8 5h-26q-2 0 -2 -3v-83l-1 -2q0 -8 21.5 -9t21.5 -13q0 -11 -10 -11l-14 1q-15 1 -32 1 q-12 0 -22.5 -0.5t-16.5 -1t-7 -0.5q-10 0 -10 12q0 5 2 7t7.5 3t14.5 2q8 0 8 10v186q0 7 -7 9t-21 4q-8 0 -8 8q0 9 8 9h12q17 0 43 2.5t37 2.5zM291 604q0 22 -15.5 37.5t-41.5 15.5q-21 0 -21 -6l1 -1v-86q0 -4 20 -4q57 0 57 44zM258 372q72 0 123.5 51t51.5 121 q0 72 -51.5 123.5t-123.5 51.5q-70 0 -121.5 -51.5t-51.5 -123.5q0 -70 51.5 -121t121.5 -51zM258 335q-86 0 -147 61.5t-61 147.5q0 88 61 149.5t147 61.5q88 0 149.5 -61.5t61.5 -149.5q0 -86 -62 -147.5t-149 -61.5z" />
<glyph unicode="&#xb4;" d="M175 701q15 0 26 -10.5t11 -26.5q0 -19 -24 -45q-130 -133 -139 -140q-7 -5 -15 -5q-9 0 -14 6t-5 14q0 7 4.5 15t27.5 43l73 107q27 42 55 42z" />
<glyph unicode="&#x2000;" horiz-adv-x="377" />
<glyph unicode="&#x2001;" horiz-adv-x="755" />
<glyph unicode="&#x2002;" horiz-adv-x="377" />
<glyph unicode="&#x2003;" horiz-adv-x="755" />
<glyph unicode="&#x2004;" horiz-adv-x="251" />
<glyph unicode="&#x2005;" horiz-adv-x="188" />
<glyph unicode="&#x2006;" horiz-adv-x="125" />
<glyph unicode="&#x2007;" horiz-adv-x="125" />
<glyph unicode="&#x2008;" horiz-adv-x="94" />
<glyph unicode="&#x2009;" horiz-adv-x="151" />
<glyph unicode="&#x200a;" horiz-adv-x="41" />
<glyph unicode="&#x2010;" d="M199 335q16 0 16 -39q0 -14 -18 -28l-85 -60l-50 -36q-12 -9 -19.5 -13.5t-12.5 -4.5q-18 0 -18 26v14q0 10 3.5 14.5t15.5 13.5l137 96q25 17 31 17z" />
<glyph unicode="&#x2011;" d="M199 335q16 0 16 -39q0 -14 -18 -28l-85 -60l-50 -36q-12 -9 -19.5 -13.5t-12.5 -4.5q-18 0 -18 26v14q0 10 3.5 14.5t15.5 13.5l137 96q25 17 31 17z" />
<glyph unicode="&#x2013;" horiz-adv-x="527" d="M27 250v4q0 25 14 25h446q14 0 14 -25v-2q0 -28 -14 -28h-446q-14 0 -14 26z" />
<glyph unicode="&#x2014;" horiz-adv-x="1068" d="M27 250v4q0 25 14 25h987q14 0 14 -25v-2q0 -16 -3 -22t-11 -6h-987q-14 0 -14 26z" />
<glyph unicode="&#x2018;" d="M125 464q-32 0 -59 27.5t-27 84.5q0 53 20 82t36 29q19 -2 19 -20q0 -5 -18 -25.5t-18 -41.5q0 -15 10 -26.5t33 -11.5q3 0 9 0.5t9 0.5q27 0 38.5 -13.5t11.5 -29.5q0 -21 -17.5 -38.5t-46.5 -17.5z" />
<glyph unicode="&#x2019;" d="M102 684q32 0 59.5 -27.5t27.5 -84.5q0 -53 -20.5 -81.5t-36.5 -28.5q-8 0 -13.5 5.5t-5.5 13.5q0 5 18 26t18 42q0 14 -10 25.5t-33 11.5q-3 0 -9 -0.5t-9 -0.5q-27 0 -38 13.5t-11 29.5q0 21 17 38.5t46 17.5z" />
<glyph unicode="&#x201c;" horiz-adv-x="416" d="M315 464q-32 0 -59.5 27.5t-27.5 84.5q0 53 20.5 82t36.5 29q19 -2 19 -20q0 -5 -18 -25.5t-18 -41.5q0 -38 43 -38q3 0 9 0.5t9 0.5q27 0 38 -13.5t11 -29.5q0 -21 -17 -38.5t-46 -17.5zM125 464q-32 0 -59.5 27.5t-27.5 84.5q0 53 20.5 82t36.5 29q19 -2 19 -20 q0 -5 -18 -25.5t-18 -41.5q0 -38 43 -38q3 0 9 0.5t9 0.5q27 0 38 -13.5t11 -29.5q0 -21 -17 -38.5t-46 -17.5z" />
<glyph unicode="&#x201d;" horiz-adv-x="416" d="M102 684q32 0 59 -27.5t27 -84.5q0 -52 -20 -81t-36 -29h-1q-7 0 -12.5 6t-5.5 13q0 5 17.5 26t17.5 42q0 37 -43 37q-3 0 -8.5 -0.5t-8.5 -0.5q-27 0 -38.5 13.5t-11.5 29.5q0 21 17.5 38.5t46.5 17.5zM292 684q32 0 59 -27.5t27 -84.5q0 -52 -20 -81t-36 -29h-1 q-7 0 -12.5 6t-5.5 13q0 5 17.5 26t17.5 42q0 37 -43 37q-3 0 -8.5 -0.5t-8.5 -0.5q-27 0 -38.5 13.5t-11.5 29.5q0 21 17.5 38.5t46.5 17.5z" />
<glyph unicode="&#x2022;" horiz-adv-x="286" d="M143 188q-34 0 -57 24t-23 56q0 34 24 57t56 23q34 0 57 -24t23 -56q0 -34 -24 -57t-56 -23z" />
<glyph unicode="&#x2026;" horiz-adv-x="681" d="M567 101q24 0 42 -17.5t18 -41.5t-17 -41.5t-42 -17.5q-24 0 -42 17t-18 43q0 25 17.5 41.5t41.5 16.5zM340 101q24 0 42 -17.5t18 -41.5t-17 -41.5t-42 -17.5q-24 0 -42 17t-18 43q0 25 17.5 41.5t41.5 16.5zM113 101q24 0 42 -17.5t18 -41.5t-17 -41.5t-42 -17.5 q-24 0 -42 17t-18 43q0 25 17.5 41.5t41.5 16.5z" />
<glyph unicode="&#x202f;" horiz-adv-x="151" />
<glyph unicode="&#x205f;" horiz-adv-x="188" />
<glyph unicode="&#x20ac;" horiz-adv-x="713" d="M451 594q-76 0 -149 -45t-109 -143h437l-25 -61h-425q0 -2 -0.5 -10t-0.5 -14q0 -7 0.5 -15t0.5 -10h404l-26 -62h-365q21 -63 67 -107.5t94 -62.5t95 -18q22 0 44 3t39.5 9t33.5 12.5t29.5 15t24 16t19 15t13.5 13t8 9.5l4 4l4 -1v-78q-98 -78 -215 -78q-45 0 -90 12.5 t-91 39.5t-84 77.5t-59 118.5h-105l25 62h70v49h-99l25 61h84q20 68 59.5 119t86 77.5t89.5 39t81 12.5q75 0 133.5 -23t114.5 -77l-28 -63q-7 11 -22 25.5t-41 33.5t-66 31.5t-85 12.5z" />
<glyph unicode="&#x2122;" horiz-adv-x="919" d="M830 421q0 -9 0.5 -13t6.5 -6.5t10 -3t19 -1.5q12 0 12 -14q0 -13 -12 -13q-2 0 -9.5 1t-21 1.5t-29.5 0.5h-2q-17 0 -31 -0.5t-21.5 -1.5t-9.5 -1q-12 0 -12 14q0 9 7 11t27 4q11 1 14.5 6t3.5 18v103q0 79 -2 79l-3 -3q-3 -4 -15.5 -25t-31.5 -56l-60 -109 q-19 -35 -23.5 -41t-10.5 -6h-2q-8 0 -17 19t-42 81.5t-83 138.5q0 1 -2 1q0 -1 -1 -39t-1 -62q0 -75 1.5 -89t8.5 -14q9 -1 17.5 -1.5t14.5 -4.5t6 -12q0 -13 -10 -13l-19 2q-19 1 -39 1q-16 0 -29.5 -0.5t-21 -1.5t-9.5 -1q-10 0 -10 13q0 8 5.5 12t14 4.5t18.5 1.5 q4 1 5 1t3.5 4.5t3.5 9.5l2 21q2 17 3 33t3 52q6 72 6 120q0 7 -15 23t-35 17q-12 0 -12 10q0 13 10 13h70q10 0 14 -7l92 -153q60 -96 64 -96t4 5l128 237q2 6 5 10t9 4h72q10 0 10 -13q0 -12 -25 -15t-25 -16q0 -47 2 -234v-6zM278 370q-2 0 -10 1t-22.5 1.5t-31.5 0.5h-2 q-18 0 -33 -0.5t-23 -1.5t-10 -1q-12 0 -12 15q0 7 3.5 10t12 3.5t22.5 1.5q14 2 14 16v246q0 13 -10 13h-74q-10 0 -13 -4.5t-21 -39.5q0 -3 -3.5 -7t-10.5 -4q-12 0 -12 15l14 68q3 8 12 8h284q9 0 11 -6.5t11 -63.5l1 -2q1 -2 1 -3q0 -6 -4 -9.5t-8 -3.5t-14 10 q-10 19 -15.5 28.5t-8.5 11.5t-10 2h-72q-8 0 -8 -11v-254q0 -4 0.5 -6t6.5 -3t11.5 -1.5t23.5 -1.5q7 -1 8.5 -4t1.5 -12q0 -12 -10 -12z" />
</font>
</defs>
</svg>
